<?xml version="1.0" encoding="UTF-8"?>
<svg xmlns="http://www.w3.org/2000/svg" version="1.1" xmlns:xlink="http://www.w3.org/1999/xlink" viewBox="0 0 500 500">
  <defs>
    <style>
      .cls-1 {
        fill: url(#Degradado_sin_nombre_97);
        filter: url(#drop-shadow-4);
      }

      .cls-2 {
        fill: #7691fb;
      }

      .cls-3 {
        fill: #334489;
      }

      .cls-4, .cls-5 {
        fill: #fff;
      }

      .cls-6 {
        fill: url(#Degradado_sin_nombre_96);
        filter: url(#drop-shadow-5);
      }

      .cls-7 {
        fill: url(#Degradado_sin_nombre_100);
        filter: url(#drop-shadow-1);
      }

      .cls-5 {
        opacity: .8;
      }

      .cls-8 {
        fill: url(#Degradado_sin_nombre_95);
        filter: url(#drop-shadow-6);
      }

      .cls-9 {
        fill: url(#Degradado_sin_nombre_98);
        filter: url(#drop-shadow-3);
      }

      .cls-10 {
        fill: #fdfdfd;
      }

      .cls-11 {
        fill: url(#Degradado_sin_nombre_99);
        filter: url(#drop-shadow-2);
      }
    </style>
    <linearGradient id="Degradado_sin_nombre_100" data-name="Degradado sin nombre 100" x1="258.2" y1="309.2" x2="359.5" y2="309.2" gradientTransform="translate(-128.2 309) rotate(-45)" gradientUnits="userSpaceOnUse">
      <stop offset="0" stop-color="#db6117"/>
      <stop offset="1" stop-color="#f57f17"/>
    </linearGradient>
    <filter id="drop-shadow-1" x="249.5" y="252.5" width="118.8" height="119" filterUnits="userSpaceOnUse">
      <feOffset dx="0" dy="2.9"/>
      <feGaussianBlur result="blur" stdDeviation="2.9"/>
      <feFlood flood-color="#665889" flood-opacity=".4"/>
      <feComposite in2="blur" operator="in"/>
      <feComposite in="SourceGraphic"/>
    </filter>
    <linearGradient id="Degradado_sin_nombre_99" data-name="Degradado sin nombre 99" x1="319.4" y1="248.1" x2="420.6" y2="248.1" gradientTransform="translate(-67 334.3) rotate(-45)" gradientUnits="userSpaceOnUse">
      <stop offset="0" stop-color="#faa921"/>
      <stop offset="1" stop-color="#ffca28"/>
    </linearGradient>
    <filter id="drop-shadow-2" x="310.4" y="191.6" width="119" height="119" filterUnits="userSpaceOnUse">
      <feOffset dx="0" dy="2.9"/>
      <feGaussianBlur result="blur-2" stdDeviation="2.9"/>
      <feFlood flood-color="#665889" flood-opacity=".4"/>
      <feComposite in2="blur-2" operator="in"/>
      <feComposite in="SourceGraphic"/>
    </filter>
    <linearGradient id="Degradado_sin_nombre_98" data-name="Degradado sin nombre 98" x1="75.2" y1="248.1" x2="176.5" y2="248.1" gradientTransform="translate(-138.5 161.6) rotate(-45)" gradientUnits="userSpaceOnUse">
      <stop offset="0" stop-color="#5e1fa2"/>
      <stop offset="1" stop-color="#7b1fa2"/>
    </linearGradient>
    <filter id="drop-shadow-3" x="66.4" y="191.6" width="119" height="119" filterUnits="userSpaceOnUse">
      <feOffset dx="0" dy="2.9"/>
      <feGaussianBlur result="blur-3" stdDeviation="2.9"/>
      <feFlood flood-color="#665889" flood-opacity=".4"/>
      <feComposite in2="blur-3" operator="in"/>
      <feComposite in="SourceGraphic"/>
    </filter>
    <linearGradient id="Degradado_sin_nombre_97" data-name="Degradado sin nombre 97" x1="136.3" y1="186.9" x2="237.6" y2="186.9" gradientTransform="translate(-77.4 187) rotate(-45)" gradientUnits="userSpaceOnUse">
      <stop offset="0" stop-color="#21316f"/>
      <stop offset="1" stop-color="#303f9f"/>
    </linearGradient>
    <filter id="drop-shadow-4" x="127.6" y="130.4" width="119" height="119" filterUnits="userSpaceOnUse">
      <feOffset dx="0" dy="2.9"/>
      <feGaussianBlur result="blur-4" stdDeviation="2.9"/>
      <feFlood flood-color="#665889" flood-opacity=".4"/>
      <feComposite in2="blur-4" operator="in"/>
      <feComposite in="SourceGraphic"/>
    </filter>
    <linearGradient id="Degradado_sin_nombre_96" data-name="Degradado sin nombre 96" x1="258.2" y1="186.9" x2="359.5" y2="186.9" gradientTransform="translate(-41.7 273.2) rotate(-45)" gradientUnits="userSpaceOnUse">
      <stop offset=".4" stop-color="#4d8e15"/>
      <stop offset=".9" stop-color="#689f38"/>
    </linearGradient>
    <filter id="drop-shadow-5" x="249.5" y="130.4" width="118.8" height="119" filterUnits="userSpaceOnUse">
      <feOffset dx="0" dy="2.9"/>
      <feGaussianBlur result="blur-5" stdDeviation="2.9"/>
      <feFlood flood-color="#665889" flood-opacity=".4"/>
      <feComposite in2="blur-5" operator="in"/>
      <feComposite in="SourceGraphic"/>
    </filter>
    <linearGradient id="Degradado_sin_nombre_95" data-name="Degradado sin nombre 95" x1="136.3" y1="309.2" x2="237.6" y2="309.2" gradientTransform="translate(-163.9 222.8) rotate(-45)" gradientUnits="userSpaceOnUse">
      <stop offset="0" stop-color="#9c1b0b"/>
      <stop offset="1" stop-color="#d84315"/>
    </linearGradient>
    <filter id="drop-shadow-6" x="127.6" y="252.5" width="119" height="119" filterUnits="userSpaceOnUse">
      <feOffset dx="0" dy="2.9"/>
      <feGaussianBlur result="blur-6" stdDeviation="2.9"/>
      <feFlood flood-color="#665889" flood-opacity=".4"/>
      <feComposite in2="blur-6" operator="in"/>
      <feComposite in="SourceGraphic"/>
    </filter>
  </defs>
  <!-- Generator: Adobe Illustrator 28.7.4, SVG Export Plug-In . SVG Version: 1.2.0 Build 166)  -->
  <g>
    <g id="OBJECTS">
      <rect class="cls-3" x="208.2" y="208.3" width="79.5" height="79.5" rx="38.6" ry="38.6" transform="translate(248 -102.7) rotate(45)"/>
      <g>
        <rect class="cls-7" x="269.1" y="269.4" width="79.5" height="79.5" rx="13.5" ry="13.5" transform="translate(309.1 -127.8) rotate(45)"/>
        <g>
          <path class="cls-5" d="M284.4,291.6c.7,0,1.4,0,2.1,0,1.3,0,2.7,0,4,0,.4,0,.5.1.6.5.3,1.2.6,2.5.9,3.7h18.3c-.2.9-.3,1.7-.5,2.5h-1.7c.2.8.4,1.6.6,2.4.4,1.6.8,3.3,1.2,4.9,0,.3.2.4.5.4.5,0,1.1-.2,1.6,0,.4.2.7.8,1.1,1.2.2.2.4.4.7.7h-3.2c.5,2.2,1,4.3,1.6,6.5,1.5-.2,3-.4,4.5-.6-.4-1.5-.7-3-1.1-4.5.4.2.8.4,1.2.6.3.1.5.3.8.4.8.1,1.1.6,1.2,1.4,0,.6.3,1.1.4,1.7,0,0,0,0,0,0,.5,0,1.1-.1,1.7-.2.3,0,.5-.2.6-.6,0-.5.1-1,.2-1.5.8,0,1.7-.1,2.5-.2,0,.8-.1,1.7-.2,2.5,0,.4,0,.8-.1,1.2,0,.5-.3.7-.8.8-1.1.1-2.2.2-3.2.4-3.5.4-7,.9-10.5,1.3-3.3.4-6.5.8-9.8,1.2-.3,0-.6,0-1,.1,0,.2,0,.3.1.5.3.9.6,1.8.9,2.6.1.3.3.4.6.4,4.4,0,8.8,0,13.2,0h11.1c.4,1.6.7,3.1,1.1,4.6h-4.1c-.1-.5-.3-.9-.4-1.4h-.6c-6.5,0-13,0-19.5,0-.9,0-1.8,0-2.7.1-1,0-1.3-.1-1.6-1.1-.6-2.2-1.2-4.4-1.8-6.6-2.1-7.7-4.2-15.4-6.4-23.1,0-.1,0-.2-.1-.4h-3.7v-2.8ZM302,315.9c0-.2,0-.3,0-.4-.6-2.4-1.1-4.7-1.7-7.1,0-.3-.2-.4-.5-.4-1.4,0-2.7,0-4.1,0-.1,0-.3,0-.5,0,.8,2.8,1.5,5.6,2.3,8.4,1.5-.2,3-.4,4.5-.6ZM292.6,298.4c0,.1,0,.2,0,.2.7,2.4,1.3,4.8,2,7.2,0,.3.2.3.4.3,1.4,0,2.9,0,4.3,0,.1,0,.2,0,.4,0-.6-2.5-1.2-4.9-1.7-7.3,0-.3-.2-.3-.4-.3-1,0-2,0-3,0-.6,0-1.2,0-1.9,0ZM300.6,298.4c0,0,0,.2,0,.2.6,2.3,1.1,4.7,1.7,7,0,.3.2.4.5.4,1.4,0,2.8,0,4.1,0,.1,0,.2,0,.3,0-.6-2.5-1.2-5.1-1.8-7.6h-4.8ZM304.6,315.5c1.6-.2,3.1-.4,4.7-.7-.6-2.3-1.1-4.6-1.6-6.8h-4.9c.6,2.5,1.2,4.9,1.8,7.4Z"/>
          <path class="cls-5" d="M314.9,332.8c-.2,0-.5-.1-.7-.2-1.5-.6-2.3-2.1-2-3.6.3-1.5,1.7-2.5,3.2-2.5,1.5,0,2.8,1.2,3,2.7.2,1.6-.7,3-2.2,3.5-.2,0-.3.1-.5.2h-.9Z"/>
          <path class="cls-5" d="M301.8,332.8c-.1,0-.3-.1-.4-.1-1.5-.5-2.5-2-2.2-3.5.3-1.6,1.6-2.7,3.2-2.7,1.6,0,2.9,1.2,3.1,2.7.2,1.5-.7,3-2.2,3.4-.1,0-.3.1-.4.2h-1Z"/>
          <path class="cls-5" d="M321.7,309c-5.3,0-9.7-4.3-9.7-9.7,0-5.3,4.4-9.7,9.7-9.7,5.3,0,9.7,4.4,9.7,9.7,0,5.3-4.3,9.7-9.7,9.7ZM320.5,300.1c-.4-.4-.8-.7-1.2-1.1-.5-.5-1.2-.5-1.6,0-.4.5-.4,1.1,0,1.6.7.7,1.4,1.3,2.1,1.9.4.4,1.1.4,1.5,0,1.5-1.5,2.9-3,4.4-4.6.4-.4.3-1.1,0-1.5-.4-.4-1-.4-1.5,0-.1.1-.2.2-.3.3-1.1,1.1-2.2,2.3-3.3,3.4Z"/>
        </g>
      </g>
      <g>
        <rect class="cls-11" x="330.2" y="208.3" width="79.5" height="79.5" rx="13.5" ry="13.5" transform="translate(283.8 -189) rotate(45)"/>
        <path class="cls-4" d="M365.2,220.8h21.3c.1.1.2.3.4.4.3.2.3.5.3.8,0,15.9,0,31.8,0,47.7,0,.4,0,.8-.4,1.1-.2.2-.4.3-.7.3-12.1,0-24.2,0-36.3,0-.4,0-.8,0-1.1-.4-.2-.2-.3-.4-.3-.6,0-9.4,0-18.9,0-28.3s0-4.2,0-6.3c0-.1,0-.3.1-.4,4.6-4.6,9.3-9.3,13.9-13.9.2-.2.4-.3.7-.3.6,0,1.3,0,1.9,0ZM384.7,223.3h-20c0,.1,0,.2,0,.3,0,4,0,7.9,0,11.9,0,.5,0,.9-.5,1.2-.2.1-.3.2-.5.2-3.7,0-7.4,0-11.1,0-.5,0-1,0-1.5,0v31.6h33.7v-45.2ZM362.1,225.2c-3.1,3.1-6.1,6.2-9.2,9.2h9.2v-9.2ZM389,225.4c0,15.1,0,30.2,0,45.2,0,.5-.2,1-.5,1.4-.2.2-.4.4-.7.6-.1,0-.3.1-.5.1-6.6,0-13.2,0-19.8,0-4.8,0-9.7,0-14.5,0,0,0-.2,0-.3,0,0,.6,0,1.1.1,1.6,0,.4.6.9.9.9,11.3,0,22.6,0,33.9,0,0,0,.2,0,.3,0,1.5-.5,2.7-1.4,3.3-2.9.2-.4.3-.8.3-1.3,0-15,0-29.9,0-44.9s-.4-1-.9-1.1c-.5,0-1,0-1.6-.1v.5ZM363,252.9c-.1,0-.2-.1-.3-.2-.7-.3-1.4-.6-2.1-.9-.5-.2-1.1-.5-1.5-.9-.5-.5-.4-1.2.2-1.6.2-.1.4-.2.7-.3.6-.1,1.2-.1,1.8,0,.5.1,1.1.2,1.6.4.3,0,.4,0,.5-.3.1-.5.3-.9.4-1.4.1-.4,0-.6-.3-.7-.6-.2-1.3-.4-2-.5-.5-.1-.7-.3-.7-.8,0-.2,0-.4,0-.6,0-.4-.2-.5-.6-.6-.3,0-.6,0-.9,0-.4,0-.5.2-.6.6,0,.3,0,.6,0,.9,0,.4-.1.6-.5.7-.4.2-.8.3-1.2.5-1.3.7-2,1.8-2,3.4,0,1,.4,1.9,1.2,2.5.4.3.8.6,1.2.8.8.4,1.6.6,2.4,1,.4.2.8.4,1.1.7.7.6.5,1.6-.3,2-.2,0-.3.1-.5.2-.9.2-1.7,0-2.6-.1-.4-.1-.9-.3-1.3-.4-.2,0-.5,0-.6.2-.3.6-.5,1.1-.5,1.8,0,.2,0,.4.3.5.2,0,.5.2.7.3.6.2,1.3.3,1.9.4.5.1.6.2.6.7,0,.3,0,.5,0,.8,0,.3.1.5.5.5.3,0,.7,0,1,0,.4,0,.5-.2.6-.6,0-.4,0-.9,0-1.3,0-.1.1-.3.2-.3.3-.2.6-.3.9-.4,1.3-.5,2.7-1.8,2.5-3.8.2-1.5-.7-2.5-1.9-3.3ZM369,229.3v2.5h11.5v-2.5h-11.5ZM369,234.4v2.5h11.5v-2.5h-11.5ZM380.5,247.2v-2.5h-11.5v2.5h11.5ZM380.5,252.3v-2.5h-11.5v2.5h11.5ZM380.5,257.4v-2.5h-11.5v2.5h11.5ZM380.5,260h-11.5v2.5h11.5v-2.5Z"/>
      </g>
      <g>
        <rect class="cls-9" x="86.1" y="208.3" width="79.5" height="79.5" rx="13.5" ry="13.5" transform="translate(212.3 -16.3) rotate(45)"/>
        <path class="cls-4" d="M143,252.6v.3c0,4.9,0,9.7,0,14.6,0,1.7-.9,3-2.4,3.6-.4.1-.9.2-1.3.2-6,0-12.1,0-18.1,0-2.7,0-5.3,0-8,0-2.2,0-3.9-1.6-3.9-3.9,0-9.5,0-19,0-28.5,0-2.3,0-4.6,0-6.8,0-2.1,1.6-3.8,3.8-3.8,5.9,0,11.9,0,17.8,0,.1,0,.3,0,.3.1,2.7,2.9,5.5,5.9,8.2,8.9,0,0,0,0,0,0-.4.4-.9.9-1.3,1.3-2.1-2.3-4.3-4.6-6.5-6.9,0,.1,0,.2,0,.3,0,2.1,0,4.3,0,6.4,0,1.2.8,2,2,2,.9,0,1.8,0,2.6,0,0,0,0,0,0,0,0,0,0,.1-.1.2-.5.5-1,1-1.5,1.5,0,0-.3.2-.4.2-.4,0-.8,0-1.3,0-1.8-.2-3.2-1.7-3.2-3.5,0-1.8,0-3.5,0-5.3,0-1,0-2,0-3v-.3h-.3c-5.4,0-10.8,0-16.1,0-.3,0-.7,0-1,0-.8.2-1.3.9-1.3,1.8,0,1.5,0,3,0,4.5,0,6.4,0,12.9,0,19.3,0,3.8,0,7.6,0,11.4,0,1.3.8,2,2,2,7.7,0,15.4,0,23.1,0,1,0,1.9,0,2.9,0,.9,0,1.6-.6,1.8-1.5,0-.2,0-.4,0-.6,0-4.2,0-8.4,0-12.6,0-.3,0-.4.3-.6.5-.5,1-1,1.5-1.6,0,0,0,0,0,0ZM126.4,259.9c3.3-1.2,6.7-2.5,10-3.7.2,0,.4-.2.5-.3,1-1,2.1-2.1,3.1-3.1,3.7-3.7,7.4-7.4,11.2-11.2,1.5-1.5,1.5-3.8,0-5.3-.4-.4-.8-.9-1.3-1.3-1.6-1.6-3.9-1.6-5.5,0-4.7,4.7-9.5,9.5-14.2,14.2-.2.2-.3.4-.4.6-1.1,2.9-2.2,5.9-3.3,8.8-.2.4-.3.9-.5,1.4.1,0,.2,0,.3,0ZM133.5,248.8c3.3-3.3,6.6-6.6,9.8-9.8,1.3,1.3,2.6,2.6,3.8,3.9-3.2,3.2-6.5,6.5-9.8,9.8-1.3-1.3-2.6-2.6-3.8-3.8ZM136.1,254.2c-.2.1-.4.3-.6.4-1.9.7-3.8,1.4-5.7,2.1-.1,0-.2,0-.4.1,0-.1,0-.2.1-.3.7-1.9,1.5-3.9,2.2-5.8,0-.2.3-.4.4-.6,1.3,1.3,2.7,2.7,4,4ZM146.1,236.2c.7-.6,1.7-.6,2.4,0,.5.5,1,.9,1.4,1.4.6.7.7,1.7.2,2.4,0,.1-.2.2-.2.3-.4.4-.8.8-1.2,1.2-1.3-1.3-2.6-2.6-3.9-3.9.5-.5.9-1,1.4-1.4ZM115.9,255.2c0,0,.1.1.2.1.6,0,1.2,0,1.7,0,2.8,0,5.6,0,8.4,0,.2,0,.3,0,.4-.3.2-.5.3-.9.5-1.4,0,0,0-.1,0-.2h-11.3c0,.6,0,1.2,0,1.7ZM124.9,242.3c-2.3,0-4.6,0-6.9,0-.6,0-1.3,0-1.9,0,0,0-.2,0-.2.1,0,.6,0,1.1,0,1.7.1,0,.2,0,.3,0,2.9,0,5.9,0,8.8,0,.2,0,.3,0,.3-.3,0,0,0-.2,0-.2v-1.4h-.3ZM115.9,247.9v1.8h9.3v-1.8h-9.3ZM116.2,261c2.4,0,4.9,0,7.3,0,.3,0,.6,0,.8,0,.2-.1.2-.4.3-.7.1-.4.3-.7.4-1.1h-9.2v1.9h.3ZM136.3,259.1c-1.2,0-2.5,0-3.7,0-.1,0-.2,0-.4,0-1.5.5-3,1.1-4.4,1.6,0,0-.1,0-.2,0h0c3,0,5.9,0,8.9,0v-1.8c0,0-.1,0-.2,0Z"/>
      </g>
      <rect class="cls-1" x="147.2" y="147.2" width="79.5" height="79.5" rx="13.5" ry="13.5" transform="translate(186.9 -77.5) rotate(45)"/>
      <g>
        <path class="cls-4" d="M189.4,165.3c2.1.9,2.7,1.8,2.7,4.1,0,.4,0,.8,0,1.2,0,.5.1.7.6.9,1.9.8,1.8.8,3.3-.6,1.5-1.4,3.4-1.4,4.9,0,1,.9,1.9,1.9,2.9,2.8,1.5,1.5,1.5,3.3,0,4.8-.1.1-.2.3-.3.3-1.2.8-1.4,1.8-.7,3.1.3.6.5.9,1.2.8.4,0,.9,0,1.3,0,1.7,0,3.1,1.3,3.2,3,0,1.7,0,3.3,0,5,0,1.6-1.4,2.8-3,2.9-.7,0-1.5,0-2.2,0-.3,0-.7.3-.8.5-.3,1.5-1.3,1.8-2.6,1.6-.3,0-.6,0-.9,0,.6-1.3,1-2.6,1.7-3.8.2-.4.9-.7,1.4-.8,1-.1,2,0,3,0,.7,0,1-.3,1-1,0-1.3,0-2.6,0-3.9,0-.7-.3-1-1-1-.9,0-1.9,0-2.8,0-.8,0-1.2-.3-1.5-1.1-.4-1.1-.8-2.3-1.3-3.4-.3-.8-.2-1.3.3-1.9.7-.7,1.4-1.5,2.2-2.2.5-.5.5-.9,0-1.3-1-.9-1.9-1.9-2.9-2.8-.5-.5-.9-.4-1.3,0-.7.7-1.3,1.3-2,2-.6.6-1.2.7-2,.3-1-.6-2-1-3.1-1.5-.8-.3-1.2-.8-1.2-1.7,0-.9,0-1.9,0-2.8,0-.7-.3-1.1-1-1-1,0-1.9,0-2.9,0-.8,0-1,.4-1,1.1,0,.9,0,1.9,0,2.8,0,.8-.3,1.4-1.1,1.7-1.1.4-2.2,1-3.3,1.5-.7.4-1.3.3-1.8-.2-.6-.6-1.3-1.2-1.9-1.9-.5-.5-1-.6-1.5,0-.9.9-1.8,1.8-2.7,2.6-.5.5-.6,1,0,1.5.7.7,1.4,1.4,2.1,2.1.6.5.6,1.1.3,1.8-.5,1.1-.9,2.3-1.3,3.5-.2.7-.7,1.1-1.4,1.1-.9,0-1.9,0-2.8,0-.7,0-1.1.3-1,1,0,1.3,0,2.6,0,3.8,0,.8.4,1.1,1.1,1.1,1,0,1.9,0,2.9,0,.7,0,1.2.3,1.5,1,.5,1.2,1,2.3,1.6,3.6-.8,0-1.7,0-2.5,0-.3,0-.6-.6-.7-1-.3-.9-.8-1.2-1.7-1.1-3.4.3-4.9-1.2-4.6-4.6,0-1.1,0-2.1,0-3.2,0-1.8,1.4-3.1,3.2-3.2,0,0,.2,0,.3,0,2.1,0,2.2,0,2.8-2.2,0-.2,0-.5-.2-.6-.4-.5-.9-1-1.4-1.4-1.4-1.4-1.4-3.3,0-4.7,1-1,2-2,3-3,1.4-1.3,3.2-1.3,4.7,0,0,0,.2.1.2.2.9,1.3,1.9,1.4,3.2.6.4-.3.8-.5.7-1.1,0-.3,0-.7,0-1.1,0-2.3.6-3.2,2.7-4.1h4.8Z"/>
        <path class="cls-4" d="M190.5,202.4c1.5.3,1.8,1.2,1.7,2.5,0,.6,0,1.2,0,1.7,0,1.1-.6,1.8-1.7,1.8-2.9,0-5.8,0-8.6,0-1,0-1.6-.8-1.6-1.8,0-.6,0-1.2,0-1.8,0-1.8.2-2,1.9-2.6,0-1.3,0-2.7,0-4.1,0-.2-.4-.5-.6-.7-3.6-2.1-5.6-5.2-5.7-9.4,0-5.2,3.8-9.8,8.9-10.5,5.3-.8,10.3,2.4,11.8,7.5,1.5,4.9-.7,10.1-5.4,12.5-.6.3-.8.6-.7,1.2,0,1.2,0,2.4,0,3.6ZM178.6,192.4c.9,1.9,2.2,3.4,4.1,4.2.5.2.9.4.9,1.1,0,1.9,0,3.7,0,5.6,0,.5-.2.9-.8.8-1-.1-1.1.4-1.1,1.2,0,.3,0,.6,0,.9,0,.6.2.8.8.8,2.1,0,4.2,0,6.2,0,2.2,0,2.2,0,2-2.2,0-.3-.4-.7-.6-.7-.8,0-1-.4-1-1.2,0-1.6,0-3.3,0-4.9,0-.7.2-1.2.9-1.5,2.2-.9,3.7-2.7,4.6-4.9.3-.6.4-1.3.5-2.1-1,.2-1.8.3-2.6.4-1.8.2-3.6,0-5.3-.9-1.3-.6-1.6-.4-2.7.6-.8.8-1.8,1.5-2.9,1.9-.9.4-2,.4-3.1.7ZM185.2,181.7c0,.9.8,1.8,1.8,1.8.9,0,1.8-.8,1.8-1.7,0-1-.8-1.8-1.8-1.8-.9,0-1.8.9-1.8,1.8ZM181.7,182.4c-.7,0-1.4.7-1.3,1.5,0,.8.7,1.4,1.5,1.3.7,0,1.3-.7,1.3-1.4,0-.7-.7-1.4-1.4-1.4ZM190.9,185.4c0,.8.6,1.3,1.4,1.3.8,0,1.2-.5,1.3-1.3,0-.7-.6-1.4-1.3-1.4-.7,0-1.3.6-1.3,1.4ZM179.9,189.8c.2-.3.7-.7.8-1.1.1-.7-.4-1.2-1.1-1.2-.7,0-1.1.4-1.1,1.1,0,.7.4,1.1,1.4,1.3Z"/>
      </g>
      <g>
        <rect class="cls-6" x="269.1" y="147.2" width="79.5" height="79.5" rx="13.5" ry="13.5" transform="translate(222.6 -163.7) rotate(45)"/>
        <g>
          <path class="cls-4" d="M288.7,174.1c0-.4-.2-.7-.2-1.1,0-1,.4-1.8,1.3-2.2,1.2-.6,2.4-1.2,3.6-1.6.5-.2,1.1,0,1.7,0,.2,0,.5,0,.7-.1,2.1-1.7,4.3-3.5,6.4-5.2.1-.1.2-.4.3-.5,0-1.5.9-2.5,2.3-2.8,1.3-.3,2.6.4,3.2,1.7,1.9,4.2,3.8,8.4,5.7,12.6.6,1.4.1,2.9-1.1,3.7-1.3.7-2.8.4-3.7-.8-.1-.1-.4-.3-.5-.2-2.7.3-5.4.7-8.1,1.1,0,0-.1,0,0,0-.2.5-.4,1-.5,1.4,0,.1,0,.3,0,.5.6,1.3,1.3,2.7,1.9,4,.4.9.3,1.3-.6,1.8-1,.5-2.1,1-3.1,1.5-.8.4-1.3.2-1.6-.6-.7-1.4-1.3-2.7-1.9-4.1-.1-.3-.3-.5-.6-.5-.8-.1-1.3-.7-1.7-1.5-.6.3-1.1.5-1.7.8-.8.4-1.3.2-1.7-.6-.7-1.5-1.4-3.1-2.1-4.6-.4-.8-.2-1.3.7-1.7.5-.2,1.1-.5,1.6-.7ZM303.3,165.7c-2.2,1.7-4.2,3.4-6.3,5.2-.1,0-.1.4,0,.6.7,1.6,1.4,3.2,2.1,4.7.1.3.3.4.7.4,2-.3,3.9-.5,5.9-.8.7,0,1.4-.2,2.1-.3-1.5-3.3-2.9-6.5-4.4-9.7ZM297.9,178.7c0-.1,0-.2-.1-.3-1-2.3-2.1-4.6-3.1-6.9-.2-.3-.3-.4-.7-.2-1,.5-2,.9-3.1,1.4-.3.1-.4.3-.3.7,1,2.3,2.1,4.6,3.1,6.9.1.3.3.4.6.2,1.1-.5,2.2-1,3.2-1.5.1,0,.2-.2.3-.2ZM305.3,162.5c-.6,0-.9.6-.6,1.2,1.9,4.1,3.7,8.3,5.6,12.4.3.6.7.8,1.1.6.4-.2.5-.6.3-1.2-.7-1.6-1.4-3.2-2.1-4.8-1.1-2.5-2.3-5-3.4-7.5-.2-.4-.4-.6-.8-.6ZM299.3,184.6c-.6-1.2-1.1-2.3-1.7-3.5-.6.3-1.1.5-1.7.8.6,1.2,1.1,2.3,1.7,3.5.6-.3,1.1-.5,1.7-.8ZM288.6,176.4c.5,1.1.9,2.1,1.4,3.1.4-.2.7-.3,1-.5-.5-1.1-.9-2.1-1.4-3.1-.4.2-.7.3-1,.5Z"/>
          <path class="cls-4" d="M327.4,176.4c-1.4.2-2.6.4-3.9.6-.4,0-.8,0-1.1-.3-.2-.2-.3-.7-.3-1,0-.5.4-.7.9-.8,1.3-.2,2.5-.4,3.8-.6.9-.1,1.9-.3,2.8-.4,1.1-.2,1.6.3,1.5,1.4-.3,2.1-.7,4.3-1.1,6.4-.1.7-.6,1.1-1.2,1-.6,0-1-.6-.8-1.4.1-.9.3-1.9.5-2.8,0,0-.1-.1-.2-.2-.1.2-.2.3-.3.5-3,3.3-6.2,6.2-10,8.6-4.2,2.6-8.8,4.2-13.7,5-4.6.7-9.3.7-14,.6-.7,0-1.1-.4-1.1-1,0-.6.5-1,1.2-1,2.3,0,4.7,0,7,0,5.2-.2,10.3-.9,15.1-3,4.1-1.8,7.6-4.3,10.8-7.4,1.3-1.3,2.5-2.6,3.8-3.9.1-.1.2-.3.4-.4Z"/>
          <path class="cls-4" d="M333.2,199.3c0,2.6,0,5.2,0,7.9,0,.3,0,.6,0,.9-.1,1-.7,1.4-1.6,1.4-3.4,0-6.7,0-10.1,0-1,0-1.6-.5-1.7-1.5,0-.3,0-.5,0-.8,0-5.3,0-10.5,0-15.8,0-.3,0-.5,0-.8.1-1,.7-1.5,1.7-1.5,3.3,0,6.6,0,10,0,1.2,0,1.7.5,1.8,1.7,0,2.5,0,5,0,7.5,0,.3,0,.7,0,1ZM321.8,207.3h9.3v-16.2h-9.3v16.2Z"/>
          <path class="cls-4" d="M317.3,202.5c0,1.7,0,3.4,0,5.1,0,1.3-.5,1.9-1.8,1.9-3.3,0-6.6,0-9.9,0-1.1,0-1.7-.5-1.7-1.7,0-3.5,0-7.1,0-10.6,0-1.1.6-1.6,1.7-1.6,3.3,0,6.7,0,10,0,1.2,0,1.7.6,1.7,1.7,0,1.8,0,3.5,0,5.3ZM315.2,207.3v-9.8h-9.3v9.8h9.3Z"/>
          <path class="cls-4" d="M295.2,197.8c1.7,0,3.4,0,5,0,1.1,0,1.7.5,1.7,1.7,0,2.8,0,5.5,0,8.3,0,1.2-.5,1.7-1.7,1.7-3.4,0-6.7,0-10.1,0-1.1,0-1.7-.5-1.7-1.7,0-2.8,0-5.5,0-8.3,0-1.1.6-1.7,1.7-1.7,1.7,0,3.4,0,5,0ZM290.5,207.4h9.3v-7.5h-9.3v7.5Z"/>
          <path class="cls-4" d="M311.6,164.5c-.3-.2-.7-.4-.8-.7-.1-.3-.1-.8,0-1,1.2-1.4,2.4-2.8,3.6-4.1.4-.4,1-.4,1.4,0,.4.4.4,1,0,1.4-.8.9-1.6,1.8-2.4,2.7-.3.4-.6.8-1,1.1-.2.2-.5.3-.9.5Z"/>
          <path class="cls-4" d="M319.7,165.6c-.1.2-.3.6-.6.7-1.4.7-2.9,1.3-4.3,2-.6.3-1.2,0-1.4-.5-.2-.5,0-1.1.5-1.3,1.4-.7,2.9-1.3,4.3-2,.7-.3,1.5.2,1.5,1.1Z"/>
          <path class="cls-4" d="M318.7,172.4c-.7,0-1.5,0-2.2.1-.7,0-1.1-.4-1.2-1,0-.6.4-1,1.1-1,1.5-.1,3.1-.2,4.6-.3.7,0,1.2.4,1.2,1,0,.6-.4,1.1-1.1,1.1-.8,0-1.6,0-2.4.1,0,0,0,0,0,0Z"/>
        </g>
      </g>
      <g>
        <rect class="cls-8" x="147.2" y="269.4" width="79.5" height="79.5" rx="13.5" ry="13.5" transform="translate(273.4 -41.7) rotate(45)"/>
        <g>
          <path class="cls-4" d="M180.5,298.3c1.1,2.1,2.3,4.2,3.4,6.3,0,0,0,0,0,0,0-.5,0-1.1.1-1.6,0-.8.1-1.6.2-2.4,0-.1,0-.2,0-.3-.2-.5-.3-1.1-.5-1.6,0-.2,0-.4,0-.7.2-.4.4-.9.9-1.2.2-.1.5-.2.8-.2.4,0,.7,0,1.1,0,.6,0,1.1.2,1.4.7.1.2.3.4.4.6.2.4,0,.7,0,1.1-.1.3-.2.7-.4,1-.2.4,0,.8,0,1.2,0,.8.1,1.6.2,2.3,0,.3,0,.6.1,1,.2-.3.4-.7.6-1,.9-1.7,1.8-3.4,2.7-5.1,0-.2.2-.2.3-.1,1.3.6,2.3,1.4,3.2,2.5.7,1,1.3,2.2,1.6,3.4.2.8.4,1.5.4,2.3,0,.9,0,1.9,0,2.8,0,.2,0,.3-.3.3-.3,0-.6,0-.9,0-2.5,0-5,0-7.6,0-.5,0-1,0-1.5,0-3.8,0-7.5,0-11.3,0,0,0-.2,0-.2,0,0,0-.2-.1-.2-.2,0-.7,0-1.3,0-2,0-.5,0-.9.1-1.4.1-.9.4-1.8.8-2.7.4-1,.9-1.9,1.6-2.7.8-1,1.8-1.8,3-2.5Z"/>
          <path class="cls-4" d="M207.5,313.5c0,.7,0,1.5,0,2.2,0,.9-.5,1.6-1.3,2.1-.5.3-1,.4-1.6.4-.5,0-1.1,0-1.6,0-.5,0-.9.3-1,.8-.2.6-.5,1.2-.7,1.8-.2.5,0,.9.3,1.3.4.4.8.8,1.3,1.3.7.7.9,1.5.7,2.5-.1.6-.5,1.1-.9,1.5-1,.9-1.9,1.9-2.9,2.9-1,1-2.8,1-3.8,0-.4-.4-.8-.8-1.2-1.2-.4-.3-.8-.4-1.2-.3-.6.3-1.3.5-1.9.8-.5.2-.7.6-.7,1.1,0,.7,0,1.3,0,2,0,.9-.7,1.9-1.6,2.3-.4.1-.8.2-1.3.2-1.4,0-2.7,0-4.1,0-.6,0-1.1-.1-1.6-.5-.7-.5-1.1-1.2-1.1-2.1,0-.6,0-1.2,0-1.8,0-.6-.3-1-.9-1.2-.5-.2-1-.4-1.5-.6-.6-.3-1-.2-1.5.2-.4.4-.9.9-1.3,1.3-1,.9-2.6.9-3.5,0-1.1-1.1-2.2-2.2-3.3-3.3-.9-.9-1-2.5,0-3.5.4-.5.9-.9,1.4-1.4.4-.4.5-.8.3-1.3-.3-.6-.5-1.2-.8-1.9-.2-.4-.5-.7-.9-.7-.6,0-1.2,0-1.8,0-.9,0-1.7-.3-2.3-1.1-.3-.4-.5-.9-.5-1.4,0-1.5,0-3,0-4.5,0-.2,0-.3.3-.3.5,0,.9,0,1.4,0,.2,0,.3,0,.3.3,0,1.4,0,2.8,0,4.2,0,.4.3.9.9.9.7,0,1.5,0,2.2,0,1.1.1,1.8.8,2.3,1.8.3.7.6,1.4.9,2.1.3.7.2,1.4-.1,2.2-.3.6-.7,1-1.2,1.5-.2.2-.5.5-.7.7-.4.3-.2.9,0,1.2.8.8,1.6,1.6,2.4,2.4.3.3.5.5.8.7.3.2.6.1.9-.1.4-.4.8-.8,1.3-1.3.8-.7,1.7-1.1,2.7-.9.3,0,.7.2,1,.4.6.2,1.2.4,1.7.7,1,.5,1.5,1.3,1.6,2.4,0,.7,0,1.3,0,2,0,.3.1.6.4.8,0,0,.2,0,.3,0,1.5,0,3,0,4.4,0,.4,0,.7-.4.7-.8,0-.6,0-1.3,0-1.9,0-1.2.8-2.3,1.9-2.7.6-.2,1.3-.5,1.9-.8,1.1-.4,2.3-.2,3.3.7.4.4.8.8,1.2,1.2.4.4.8.4,1.2,0,1-1,2-2,2.9-2.9.4-.4.4-.8,0-1.2-.4-.4-.7-.7-1.1-1.1-1-.9-1.3-2.4-.7-3.6.3-.5.5-1.1.7-1.6.4-.9,1-1.5,2-1.7.4,0,.7-.1,1.1-.1.5,0,1.1,0,1.6,0,.4,0,.7-.3.7-.8,0-1.4,0-2.8,0-4.2,0-.3,0-.3.3-.3.4,0,.8,0,1.3,0,.2,0,.3,0,.3.3,0,.8,0,1.6,0,2.3h0Z"/>
          <path class="cls-4" d="M191.9,289.5c.1,3.2-2.7,6-6,6-3.2,0-5.9-2.7-5.9-6,0-3.2,2.6-6,6-6,3.3,0,6,2.8,6,6Z"/>
          <path class="cls-4" d="M173.5,307.9s0,0-.1,0c0,0,0,0,0,0,0,.2.1.3.1.5,0,.4,0,.8,0,1.2,0,.2,0,.3-.2.2-.5,0-1,0-1.5,0-.1,0-.2,0-.3-.2,0,0-.1-.1-.2-.2,0,0,0,.2.2.3,0,0,0,0-.1,0-.3-.1-.7,0-1,0-1.8,0-3.7,0-5.5,0-.3,0-.3,0-.3-.3,0-1.2,0-2.3,0-3.5.1-2.5,1.3-4.2,3.5-5.3.8-.4,1.7-.5,2.5-.5,1.1,0,2.1,0,3.2,0,.7,0,1.3.3,2,.5.2,0,.1.2,0,.3-.3.5-.6,1-.9,1.5-.3.7-.6,1.3-.8,2-.3.9-.4,1.9-.5,2.8,0,.2,0,.3,0,.5Z"/>
          <path class="cls-4" d="M196.3,300.7c.4-.2.9-.4,1.3-.4,1.5-.2,3.1-.2,4.6,0,1.1,0,2,.5,2.9,1.1.9.7,1.6,1.6,2,2.7.2.6.4,1.2.4,1.8,0,1.2,0,2.5,0,3.7,0,.2-.1.3-.3.3-.8,0-1.7,0-2.5,0-.7,0-1.5,0-2.2,0-1.2,0-2.4,0-3.7,0-.4,0-.4,0-.4-.4,0-.4,0-.8,0-1.2,0-1.3-.2-2.6-.5-3.9-.3-1.2-.8-2.4-1.5-3.5,0,0,0,0,0-.1Z"/>
          <path class="cls-4" d="M167.2,294.1c0-2.8,2.3-5,5.1-5,2.8,0,5.1,2.3,5,5.1,0,2.8-2.3,5.1-5.1,5-2.8,0-5-2.3-5-5.1Z"/>
          <path class="cls-4" d="M194.6,294.1c0-2.8,2.3-5.1,5.1-5,2.8,0,5,2.3,5,5.1,0,2.8-2.3,5.1-5.1,5.1-2.8,0-5-2.2-5-5.1Z"/>
          <path class="cls-4" d="M198.8,313.3c0,.7,0,1.4-.2,2.1-.3,1.7-.9,3.3-1.9,4.8-.7,1.1-1.6,2.1-2.6,2.9-1,.8-2.1,1.5-3.3,2-.9.4-1.9.7-2.9.8-1.1.2-2.2.2-3.4,0-2-.2-3.8-.9-5.5-1.9-1.4-.9-2.6-2-3.6-3.3-.8-1.1-1.5-2.4-1.9-3.7-.3-.8-.5-1.7-.5-2.6,0-.6,0-1.2,0-1.8,0-.5.1-1.1.2-1.6,0-.1.1-.2.2-.2.5,0,1,0,1.5,0,.2,0,.2,0,.2.2-.2.8-.3,1.7-.2,2.5,0,.6,0,1.2.2,1.7.2.8.4,1.6.7,2.3.6,1.4,1.5,2.7,2.6,3.7,1,.9,2.1,1.6,3.4,2.1.8.3,1.6.6,2.4.6.9,0,1.9,0,2.9,0,1.1,0,2.1-.4,3.1-.8,1.5-.7,2.8-1.6,3.9-2.9.9-1,1.6-2.2,2-3.4.2-.6.3-1.2.5-1.8.3-1.1.2-2.2.1-3.3,0-.3,0-.6-.1-.9,0-.2,0-.2.2-.2.5,0,1,0,1.5,0,.2,0,.3.1.3.3,0,.7.1,1.4.2,2.1Z"/>
        </g>
      </g>
      <g>
        <path class="cls-10" d="M233.5,240.8c-1.7,0-3.1-.6-4.2-1.7-1.2-1.2-1.7-2.6-1.7-4.2h23.1,0s0,0,0,0l-.3.2h0s0,0,0,0l-.3.2h0s0,0,0,0l-.3.2h-.1c0,0-.2.2-.2.2h-.1c0,0,0,.1,0,.1l-.3.2h0s0,0,0,0h0c0,0-.1.1-.1.1h-.1c0,0,0,0,0,0h-.1c0,0-.3.3-.3.3h0s0,0,0,0h-.1c0,0-.1.2-.1.2h0s-.2.2-.2.2h0s-.1.1-.1.1h-.1c0,0,0,.1,0,.1h0c0,0-.1.2-.1.2h-.1c0,0-.1.2-.1.2h-.1c0,0-.1.2-.1.2l-.2.2h0s-.1.1-.1.1h0s-.2.2-.2.2h0s-.1.1-.1.1l-.2.2h-.1c0,0-.1.2-.1.2h-.1c0,.1-.1.2-.1.2h-.1c0,.1-.1.2-.1.2h-.1c0,.1-.1.2-.1.2h0s-.1.1-.1.1h-.1c0,.1-.1.2-.1.2l-.2.2h-.1c0,.1-.4.4-.4.4h-.1c0,.1-.2.3-.2.3h0s-.1.1-.1.1h-9.5,0ZM255.7,234.9h11.4c0,1.7-.6,3.1-1.8,4.2-1.2,1.1-2.6,1.7-4.2,1.7h-14.3c2.4-2,4.9-3.8,7.5-5.3.4-.2.8-.4,1.3-.7ZM233.5,264.7c-.8,0-1.5-.1-2.1-.4-.1-.4-.1-1,0-1.4.1-1.4.6-2.9,1.2-4.2h34.6c0,1.7-.6,3.1-1.8,4.2-1.2,1.1-2.6,1.7-4.2,1.7h-27.6,0ZM228.7,262.4c-.8-1.1-1.2-2.3-1.2-3.7h2.2,0c0,0,0,.1,0,.1v.2c0,0-.1,0-.1,0h0c0,0,0,.3,0,.3h0s0,0,0,0h0c0,0,0,.3,0,.3h0c0,0,0,.1,0,.1v.2c0,0,0,0,0,0h0c0,0,0,.1,0,.1v.2s0,0,0,0h0c0,0,0,.1,0,.1h0c0,0,0,.2,0,.2h0c0,0,0,.2,0,.2v.2s0,0,0,0h0c0,0,0,.2,0,.2h0c0,0,0,.2,0,.2v.2s0,.1,0,.1v.2s0,0,0,0c0,0,0,.1,0,.2h0ZM232.8,252.7c-1.4-.1-2.6-.7-3.6-1.7-1.2-1.2-1.7-2.6-1.7-4.2h9.7l-.2.2h0s0,0,0,0h0c0,0,0,.1,0,.1l-.2.3h0c0,0,0,.2,0,.2h0c0,0-.1.3-.1.3h0s0,.1,0,.1h0c0,0,0,.2,0,.2h0c0,0,0,.2,0,.2h0c0,0,0,.2,0,.2h0s-.2.2-.2.2h0s0,.1,0,.1h0c0,0,0,.2,0,.2h0c0,.1-.2.4-.2.4h0c0,0,0,.2,0,.2l-.3.3h0c0,.1-.1.3-.1.3h0c0,0,0,.1,0,.1h0c0,.1-.2.4-.2.4h0s0,0,0,0h0s0,.1,0,.1l-.2.3h0c0,0,0,.2,0,.2l-.2.3h0c0,.1-.2.5-.2.5h0s0,0,0,0c0,.1-.2.2-.2.4h0ZM240.7,246.8h26.4c0,1.7-.6,3.1-1.8,4.2-1.2,1.2-2.6,1.7-4.2,1.7h-25.3c1.5-2.1,3.1-4.1,4.8-6h0Z"/>
        <path class="cls-2" d="M262.7,230.6c.9.2,1.6.5,2.1,1,.8.8,1.1,1.9,1.1,3.3h1.4c.2-.7.4-1.5.6-2.2.6-2.8.3-5-1.1-6.3-.7-.7-1.6-1.1-2.8-1.3-.4,0-.7,0-1.1,0-5.9,0-15.8,5.7-24.9,14.8-11.7,11.7-17.7,24.5-13.4,28.8,1.1,1.1,2.9,1.5,5.1,1.3,2-.2,4.4-1,7-2.3,1.6-.8,3.3-1.8,5.1-2.9-2.8,1.6-5.5,2.6-7.6,2.9-1.9.3-3.5,0-4.5-1-3.5-3.5,1.5-14.2,11.1-23.9,8.2-8.2,17.1-13,21.8-12.2h0Z"/>
      </g>
    </g>
  </g>
</svg>