<?xml version="1.0" encoding="UTF-8"?>
<!DOCTYPE svg PUBLIC "-//W3C//DTD SVG 1.1//EN" "http://www.w3.org/Graphics/SVG/1.1/DTD/svg11.dtd">
<!-- Creator: CorelDRAW 2020 (64-Bit Evaluation Version) -->
<svg xmlns="http://www.w3.org/2000/svg" xml:space="preserve" width="74.5389mm" height="27.014mm" version="1.1" style="shape-rendering:geometricPrecision; text-rendering:geometricPrecision; image-rendering:optimizeQuality; fill-rule:evenodd; clip-rule:evenodd"
viewBox="0 0 7588.96 2750.35"
 xmlns:xlink="http://www.w3.org/1999/xlink"
 xmlns:xodm="http://www.corel.com/coreldraw/odm/2003">
 <defs>
  <style type="text/css">
   <![CDATA[
    .fil2 {fill:#2B2A29;fill-rule:nonzero}
    .fil0 {fill:#0C457A;fill-rule:nonzero}
    .fil1 {fill:#6993FF;fill-rule:nonzero}
   ]]>
  </style>
 </defs>
 <g id="Layer_x0020_1">
  <metadata id="CorelCorpID_0Corel-Layer"/>
  <g id="_2659018449200">
   <g>
    <path class="fil0" d="M6142.7 1599.12l0 -723.13 1084.7 0c32.77,0 60.74,-11.25 84.84,-33.74 23.78,-24.11 35.67,-53.03 35.67,-86.77l0 -120.53 -1205.21 0 0 -241.04 1446.26 0 0 482.08c0,67.82 -23.78,125.03 -71.68,171.3 -47.57,46.61 -104.13,69.74 -169.37,69.74l-964.17 0 0 482.09 -241.04 0z"/>
    <path class="fil0" d="M4112.31 1599.12l0 -723.13 1084.7 0c32.77,0 60.74,-11.25 84.84,-33.74 23.78,-24.11 35.67,-53.03 35.67,-86.77l0 -120.53 -964.17 0c-67.81,0 -125.02,-23.14 -171.3,-69.74 -46.6,-47.57 -69.74,-104.77 -69.74,-171.3l1446.26 0 0 482.08c0,67.82 -23.78,125.03 -71.68,171.3 -47.57,46.61 -104.13,69.74 -169.37,69.74l-241.04 0 482.09 482.09 -361.57 0 -482.09 -482.09 -361.57 0 0 482.09 -241.04 0z"/>
    <path class="fil0" d="M2171.33 634.95c-67.6,0 -125.23,-23.03 -171.3,-69.74 -46.71,-47.35 -69.74,-104.77 -69.74,-171.3l931.15 0 -0.25 0.16 -0.66 0.44 -13.11 8.63 -1.38 0.92 -0.92 0.62 -11.79 7.91 -2.51 1.7 -2.19 1.5 -10.88 7.46 -4.85 3.36 -7.9 5.51 -4.74 3.34 -2.71 1.91 -11.24 8.02 -0.31 0.21 -1.2 0.86 -3.56 2.58 -4.76 3.45 -4.77 3.47 -0.27 0.2 -5.07 3.72 -10.84 8.02 -1.64 1.21 -1.29 0.98 -4.79 3.58 -4.8 3.61 -0.48 0.37 -8.33 6.31 -0.79 0.61 -4.81 3.68 -4.81 3.7 -1 0.76 -3.81 2.96 -4.82 3.75 -4.82 3.76 -4.82 3.8 -4.83 3.81 -4.82 3.83 -8.88 7.11 -0.77 0.62 -4.84 3.9 -0.27 0.22 -9.21 7.49 -0.17 0.14 -4.83 3.96 -9.67 7.98 -4.84 4.03 -4.84 4.04 -4.85 4.07 -4.84 4.08 -4.84 4.11 -4.85 4.13 -4.84 4.15 -4.84 4.16 -0.51 0.44 -4.34 3.76 -4.84 4.22 -4.84 4.24 -9.68 8.53 -4.84 4.3 -14.51 13.01 -4.84 4.37 -8.59 7.84 -1.07 0.98 -4.83 4.44 -383.32 0zm897.3 -241.04l459.57 0c0,67.81 -24,124.9 -71.68,171.3 -47.68,46.39 -104.24,69.74 -169.37,69.74l-576.33 0c95.56,-80.49 198.26,-154.3 304.35,-213.13 15.25,-8.46 33.44,-18.06 53.46,-27.91zm-897.3 1205.21c-30.67,0 -59.29,-4.73 -85.7,-14.27 -5.49,-18.01 -5.09,-41.08 -4,-55.53 4.25,-55.98 25.45,-117.71 48.73,-171.24l1397.84 0c0,67.81 -24,124.9 -71.68,171.3 -47.68,46.39 -104.24,69.74 -169.37,69.74l-1115.82 0zm-191.39 -92.56c-33.24,-42.62 -49.65,-92.3 -49.65,-148.48l88.45 0 -0.96 2.52 -0.95 2.51 -3.67 10.01 -0.9 2.49 -0.88 2.47 -3.38 9.74 -0.04 0.12 -0.82 2.45 -0.81 2.44 -3.15 9.72 -0.76 2.41 -0.74 2.41 -2.89 9.56 -0.69 2.38 -0.68 2.36 -0.67 2.36 -1.89 6.86 -0.05 0.19 -0.62 2.33 -0.62 2.33 -0.6 2.32 -1.74 6.92 -0.56 2.3 -1.19 5.02 -1.38 6.16 -0.04 0.18 -0.49 2.26 -0.95 4.48 -0.46 2.23 -0.85 4.29 -1.49 8.04 -0.86 5.03 -1.36 8.79 -0.55 3.9c-0.41,2.97 -0.77,5.93 -1.11,8.85zm164.48 -390.81c-56.09,-5.4 -104.55,-28.08 -144.39,-68.47 -46.7,-47.35 -69.74,-104.76 -69.74,-171.3l392.65 0 -6.28 7.42 -0.14 0.17 -3.19 3.8 -3.18 3.8 -0.2 0.24 -9.25 11.15 -3.13 3.8 -3.12 3.8 -3.11 3.79 -5.42 6.67 -0.74 0.92 -3.05 3.8 -3.04 3.79 -3.03 3.79 -3.02 3.79 -3 3.79 -2.99 3.79 -2.98 3.78 -1.02 1.3 -6.67 8.53 -1.17 1.51 -2.92 3.78 -2.91 3.78 -2.9 3.78 -3.59 4.7 -7.86 10.36 -2.83 3.77 -2.08 2.77 -10.18 13.72 -3.89 5.29 -5.99 8.24 -2.71 3.74 -0.64 0.89 -3.95 5.51 -8.6 12.13 -0.1 0.14 -2.29 3.23 -0.34 0.49 -2.6 3.73 -7.85 11.32 -2.42 3.52 -2.54 3.71 -7.03 10.37 -3.77 5.61 -8.94 13.5 -1.21 1.83 -1.19 1.83c-3.2,4.89 -6.33,9.77 -9.45,14.63zm316.14 -239.77l1067.64 0c0,67.82 -23.95,124.86 -71.68,171.3 -47.73,46.44 -104.24,69.74 -169.37,69.74l-1019.86 0c58.58,-84.88 125.11,-166.37 193.27,-241.04z"/>
    <path class="fil0" d="M748.91 1358.09c135.23,0 176.3,-62.45 195.9,-120.54l284.64 -843.65 268.38 0 -339.15 964.18c-40.83,116.08 -135.23,241.03 -349.52,241.03l-120.48 0c-214.29,0 -308.69,-124.95 -349.52,-241.03l-339.15 -964.18 268.38 0 284.64 843.65c19.6,58.08 60.67,120.54 195.9,120.54z"/>
    <path class="fil1" d="M3351.24 221.98c34.41,6.12 63.17,19.79 85.04,41.66 31.3,31.3 45.86,76.72 45.38,132.66l57.31 0c9.98,-30.23 17.82,-59.25 23.5,-86.92 22.88,-111.42 10.25,-200.54 -43.87,-254.66 -28.2,-28.2 -65.94,-45.08 -111.34,-51.62 -14.38,-2.07 -29.52,-3.1 -45.38,-3.1 -237.89,-0.1 -636.76,228.75 -1005.3,597.29 -470.72,470.71 -713.63,990.96 -542.58,1162.01 46.2,46.2 117.89,62.19 207.18,51.65 81.97,-9.66 178.77,-41.68 284.35,-93.22 65.49,-31.97 134.34,-71.43 205.13,-117.75 -114.65,65.43 -220.2,106.5 -306.78,118.61 -78.3,10.95 -141.09,-1.73 -180.96,-41.61 -141.83,-141.82 59.59,-573.19 449.88,-963.49 330.13,-330.13 689.62,-525.1 878.45,-491.53z"/>
   </g>
   <path class="fil2" d="M574.86 2637c-19.82,0 -37.57,-3.51 -53.23,-10.56 -15.66,-7.04 -27.94,-16.81 -36.85,-29.3 -8.91,-12.5 -13.51,-26.94 -13.8,-43.32l41.8 0c1.44,14.08 7.26,25.93 17.46,35.56 10.2,9.62 25.07,14.44 44.6,14.44 18.68,0 33.4,-4.67 44.18,-14.01 10.78,-9.34 16.17,-21.34 16.17,-35.99 0,-11.49 -3.17,-20.83 -9.48,-28.02 -6.32,-7.18 -14.22,-12.63 -23.71,-16.37 -9.48,-3.74 -22.27,-7.76 -38.35,-12.07 -19.83,-5.17 -35.71,-10.34 -47.63,-15.52 -11.92,-5.17 -22.12,-13.29 -30.6,-24.34 -8.47,-11.07 -12.72,-25.93 -12.72,-44.61 0,-16.37 4.17,-30.89 12.5,-43.52 8.33,-12.65 20.04,-22.42 35.13,-29.31 15.09,-6.89 32.4,-10.34 51.93,-10.34 28.16,0 51.22,7.04 69.18,21.12 17.96,14.08 28.08,32.76 30.38,56.04l-43.1 0c-1.44,-11.49 -7.47,-21.62 -18.1,-30.39 -10.63,-8.77 -24.71,-13.14 -42.24,-13.14 -16.37,0 -29.74,4.24 -40.08,12.72 -10.34,8.47 -15.52,20.32 -15.52,35.55 0,10.92 3.1,19.82 9.26,26.73 6.18,6.89 13.8,12.14 22.85,15.73 9.05,3.59 21.77,7.69 38.15,12.28 19.82,5.47 35.77,10.85 47.84,16.17 12.06,5.31 22.41,13.5 31.03,24.57 8.61,11.06 12.92,26.07 12.92,45.04 0,14.65 -3.88,28.45 -11.64,41.38 -7.75,12.93 -19.24,23.42 -34.47,31.46 -15.23,8.04 -33.19,12.06 -53.88,12.06zm272.13 0.87c-22.12,0 -42.16,-5.03 -60.12,-15.09 -17.96,-10.05 -32.04,-24.34 -42.24,-42.88 -10.2,-18.53 -15.3,-40.01 -15.3,-64.44 0,-24.13 5.24,-45.47 15.73,-64 10.5,-18.53 24.79,-32.75 42.89,-42.67 18.1,-9.92 38.35,-14.86 60.77,-14.86 22.41,0 42.67,4.95 60.77,14.86 18.09,9.92 32.4,24.07 42.88,42.46 10.49,18.39 15.73,39.8 15.73,64.21 0,24.42 -5.39,45.91 -16.17,64.44 -10.77,18.54 -25.35,32.83 -43.74,42.88 -18.4,10.06 -38.79,15.09 -61.21,15.09zm0 -34.48c14.08,0 27.3,-3.3 39.66,-9.91 12.35,-6.61 22.34,-16.52 29.95,-29.74 7.62,-13.22 11.42,-29.31 11.42,-48.28 0,-18.96 -3.74,-35.05 -11.21,-48.27 -7.47,-13.22 -17.24,-23.06 -29.3,-29.53 -12.07,-6.47 -25.15,-9.69 -39.23,-9.69 -14.37,0 -27.51,3.23 -39.43,9.69 -11.92,6.47 -21.48,16.31 -28.66,29.53 -7.19,13.22 -10.78,29.31 -10.78,48.27 0,19.25 3.52,35.49 10.56,48.71 7.05,13.22 16.45,23.06 28.23,29.53 11.78,6.47 24.71,9.69 38.79,9.69zm223.44 -288.33l0 318.94 -39.22 0 0 -318.94 39.22 0zm287.65 82.75l0 236.18 -39.22 0 0 -34.91c-7.47,12.06 -17.89,21.48 -31.25,28.23 -13.36,6.75 -28.09,10.13 -44.18,10.13 -18.39,0 -34.91,-3.81 -49.56,-11.42 -14.66,-7.62 -26.23,-19.04 -34.7,-34.27 -8.48,-15.22 -12.72,-33.76 -12.72,-55.6l0 -138.34 38.79 0 0 133.17c0,23.27 5.88,41.16 17.67,53.67 11.78,12.5 27.87,18.74 48.27,18.74 20.97,0 37.5,-6.47 49.56,-19.4 12.07,-12.93 18.1,-31.75 18.1,-56.45l0 -129.73 39.22 0zm125.61 32.32l0 139.22c0,11.49 2.43,19.61 7.32,24.35 4.89,4.74 13.37,7.11 25.43,7.11l28.87 0 0 33.19 -35.34 0c-21.84,0 -38.22,-5.03 -49.13,-15.09 -10.91,-10.05 -16.38,-26.57 -16.38,-49.56l0 -139.22 -30.59 0 0 -32.32 30.59 0 0 -59.48 39.23 0 0 59.48 61.63 0 0 32.32 -61.63 0zm140.67 -70.68c-7.46,0 -13.79,-2.59 -18.96,-7.76 -5.17,-5.17 -7.76,-11.49 -7.76,-18.97 0,-7.47 2.59,-13.79 7.76,-18.96 5.17,-5.17 11.49,-7.76 18.96,-7.76 7.19,0 13.3,2.59 18.32,7.76 5.03,5.17 7.54,11.48 7.54,18.96 0,7.47 -2.51,13.8 -7.54,18.97 -5.02,5.17 -11.13,7.76 -18.32,7.76zm18.97 38.36l0 236.18 -39.22 0 0 -236.18 39.22 0zm181.2 240.06c-22.12,0 -42.16,-5.03 -60.12,-15.09 -17.96,-10.05 -32.04,-24.34 -42.24,-42.88 -10.2,-18.53 -15.3,-40.01 -15.3,-64.44 0,-24.13 5.24,-45.47 15.73,-64 10.5,-18.53 24.79,-32.75 42.89,-42.67 18.1,-9.92 38.35,-14.86 60.77,-14.86 22.41,0 42.67,4.95 60.77,14.86 18.09,9.92 32.4,24.07 42.88,42.46 10.49,18.39 15.73,39.8 15.73,64.21 0,24.42 -5.39,45.91 -16.17,64.44 -10.77,18.54 -25.35,32.83 -43.74,42.88 -18.4,10.06 -38.79,15.09 -61.21,15.09zm0 -34.48c14.08,0 27.3,-3.3 39.66,-9.91 12.35,-6.61 22.34,-16.52 29.95,-29.74 7.62,-13.22 11.42,-29.31 11.42,-48.28 0,-18.96 -3.74,-35.05 -11.21,-48.27 -7.47,-13.22 -17.24,-23.06 -29.3,-29.53 -12.07,-6.47 -25.15,-9.69 -39.23,-9.69 -14.37,0 -27.51,3.23 -39.43,9.69 -11.92,6.47 -21.48,16.31 -28.66,29.53 -7.19,13.22 -10.78,29.31 -10.78,48.27 0,19.25 3.52,35.49 10.56,48.71 7.05,13.22 16.45,23.06 28.23,29.53 11.78,6.47 24.71,9.69 38.79,9.69zm299.3 -209.9c28.73,0 52.01,8.69 69.81,26.07 17.82,17.39 26.73,42.46 26.73,75.21l0 139.22 -38.79 0 0 -133.61c0,-23.56 -5.88,-41.59 -17.66,-54.09 -11.79,-12.5 -27.88,-18.75 -48.28,-18.75 -20.69,0 -37.13,6.47 -49.35,19.4 -12.21,12.93 -18.32,31.76 -18.32,56.47l0 130.59 -39.22 0 0 -236.18 39.22 0 0 33.61c7.76,-12.06 18.32,-21.4 31.67,-28.01 13.37,-6.61 28.09,-9.92 44.19,-9.92zm255.75 244.38c-18.1,0 -34.33,-3.08 -48.7,-9.26 -14.37,-6.18 -25.72,-14.8 -34.06,-25.86 -8.33,-11.07 -12.93,-23.78 -13.79,-38.15l40.51 0c1.15,11.78 6.68,21.41 16.6,28.88 9.91,7.46 22.91,11.2 39,11.2 14.94,0 26.73,-3.3 35.34,-9.91 8.62,-6.61 12.93,-14.95 12.93,-25.01 0,-10.34 -4.59,-18.03 -13.79,-23.05 -9.2,-5.03 -23.43,-9.99 -42.67,-14.87 -17.53,-4.59 -31.83,-9.26 -42.89,-14.01 -11.06,-4.73 -20.54,-11.78 -28.45,-21.12 -7.9,-9.34 -11.85,-21.62 -11.85,-36.86 0,-12.06 3.59,-23.12 10.78,-33.18 7.18,-10.06 17.38,-18.03 30.59,-23.93 13.22,-5.88 28.3,-8.83 45.26,-8.83 26.15,0 47.27,6.61 63.36,19.82 16.1,13.22 24.71,31.32 25.86,54.31l-39.22 0c-0.87,-12.36 -5.82,-22.27 -14.87,-29.74 -9.05,-7.47 -21.19,-11.21 -36.42,-11.21 -14.08,0 -25.28,3.01 -33.62,9.05 -8.33,6.04 -12.49,13.94 -12.49,23.7 0,7.76 2.51,14.15 7.53,19.18 5.03,5.03 11.35,9.05 18.97,12.07 7.62,3.01 18.17,6.39 31.68,10.12 16.95,4.6 30.74,9.12 41.38,13.58 10.63,4.45 19.75,11.14 27.37,20.04 7.62,8.91 11.57,20.55 11.85,34.91 0,12.93 -3.59,24.57 -10.77,34.91 -7.19,10.34 -17.32,18.47 -30.39,24.35 -13.07,5.89 -28.09,8.84 -45.04,8.84zm418.25 -158.61c10.91,1.73 20.9,6.18 29.95,13.37 9.05,7.18 16.24,16.09 21.55,26.72 5.31,10.64 7.97,21.98 7.97,34.06 0,15.22 -3.88,28.95 -11.64,41.16 -7.76,12.21 -19.04,21.83 -33.83,28.87 -14.8,7.04 -32.25,10.56 -52.37,10.56l-112.05 0 0 -300.41 107.75 0c20.4,0 37.78,3.38 52.15,10.13 14.37,6.75 25.15,15.87 32.33,27.37 7.19,11.49 10.77,24.42 10.77,38.79 0,17.82 -4.81,32.54 -14.44,44.18 -9.62,11.64 -22.34,20.04 -38.14,25.21zm-111.2 -15.94l65.94 0c18.39,0 32.61,-4.31 42.67,-12.93 10.06,-8.62 15.09,-20.55 15.09,-35.77 0,-15.23 -5.03,-27.15 -15.09,-35.78 -10.06,-8.62 -24.57,-12.93 -43.53,-12.93l-65.08 0 0 97.4zm69.4 138.35c19.54,0 34.76,-4.6 45.68,-13.8 10.91,-9.19 16.38,-21.98 16.38,-38.35 0,-16.67 -5.75,-29.81 -17.25,-39.44 -11.49,-9.62 -26.87,-14.44 -46.11,-14.44l-68.1 0 0 106.03 69.4 0zm382.47 -94.82c0,7.47 -0.43,15.37 -1.29,23.7l-188.78 0c1.44,23.27 9.42,41.45 23.93,54.52 14.51,13.07 32.11,19.61 52.8,19.61 16.95,0 31.1,-3.95 42.45,-11.85 11.35,-7.9 19.32,-18.46 23.93,-31.67l42.23 0c-6.31,22.69 -18.96,41.16 -37.93,55.39 -18.96,14.22 -42.53,21.33 -70.68,21.33 -22.42,0 -42.46,-5.03 -60.13,-15.09 -17.67,-10.05 -31.53,-24.34 -41.59,-42.88 -10.06,-18.53 -15.09,-40.01 -15.09,-64.44 0,-24.41 4.89,-45.83 14.66,-64.21 9.76,-18.39 23.49,-32.54 41.15,-42.46 17.67,-9.92 38.01,-14.86 61,-14.86 22.41,0 42.23,4.88 59.48,14.65 17.24,9.76 30.52,23.2 39.86,40.3 9.35,17.09 14.01,36.42 14.01,57.97zm-40.51 -8.2c0,-14.94 -3.31,-27.79 -9.92,-38.57 -6.61,-10.78 -15.59,-18.97 -26.94,-24.57 -11.34,-5.61 -23.92,-8.41 -37.71,-8.41 -19.82,0 -36.7,6.32 -50.64,18.97 -13.94,12.65 -21.91,30.17 -23.92,52.58l149.12 0zm307.05 -100.84l-142.23 347.38 -40.51 0 46.55 -113.79 -95.26 -233.6 43.53 0 74.13 191.36 73.27 -191.36 40.51 0zm153.6 240.06c-22.12,0 -42.16,-5.03 -60.12,-15.09 -17.96,-10.05 -32.04,-24.34 -42.24,-42.88 -10.2,-18.53 -15.3,-40.01 -15.3,-64.44 0,-24.13 5.24,-45.47 15.73,-64 10.5,-18.53 24.79,-32.75 42.89,-42.67 18.1,-9.92 38.35,-14.86 60.77,-14.86 22.41,0 42.67,4.95 60.77,14.86 18.09,9.92 32.4,24.07 42.88,42.46 10.49,18.39 15.73,39.8 15.73,64.21 0,24.42 -5.39,45.91 -16.17,64.44 -10.77,18.54 -25.35,32.83 -43.74,42.88 -18.4,10.06 -38.79,15.09 -61.21,15.09zm0 -34.48c14.08,0 27.3,-3.3 39.66,-9.91 12.35,-6.61 22.34,-16.52 29.95,-29.74 7.62,-13.22 11.42,-29.31 11.42,-48.28 0,-18.96 -3.74,-35.05 -11.21,-48.27 -7.47,-13.22 -17.24,-23.06 -29.3,-29.53 -12.07,-6.47 -25.15,-9.69 -39.23,-9.69 -14.37,0 -27.51,3.23 -39.43,9.69 -11.92,6.47 -21.48,16.31 -28.66,29.53 -7.19,13.22 -10.78,29.31 -10.78,48.27 0,19.25 3.52,35.49 10.56,48.71 7.05,13.22 16.45,23.06 28.23,29.53 11.78,6.47 24.71,9.69 38.79,9.69zm299.3 -209.9c28.73,0 52.01,8.69 69.81,26.07 17.82,17.39 26.73,42.46 26.73,75.21l0 139.22 -38.79 0 0 -133.61c0,-23.56 -5.88,-41.59 -17.66,-54.09 -11.79,-12.5 -27.88,-18.75 -48.28,-18.75 -20.69,0 -37.13,6.47 -49.35,19.4 -12.21,12.93 -18.32,31.76 -18.32,56.47l0 130.59 -39.22 0 0 -236.18 39.22 0 0 33.61c7.76,-12.06 18.32,-21.4 31.67,-28.01 13.37,-6.61 28.09,-9.92 44.19,-9.92zm157.48 121.54c0,-24.14 4.89,-45.33 14.66,-63.57 9.76,-18.24 23.2,-32.4 40.3,-42.46 17.09,-10.06 36.28,-15.08 57.53,-15.08 18.39,0 35.49,4.24 51.29,12.71 15.8,8.48 27.87,19.61 36.2,33.4l0 -124.98 39.65 0 0 318.94 -39.65 0 0 -44.39c-7.76,14.08 -19.25,25.65 -34.48,34.7 -15.23,9.05 -33.04,13.57 -53.44,13.57 -20.97,0 -40.01,-5.17 -57.11,-15.52 -17.09,-10.34 -30.53,-24.85 -40.3,-43.53 -9.77,-18.67 -14.66,-39.93 -14.66,-63.79zm199.99 0.43c0,-17.81 -3.59,-33.32 -10.77,-46.55 -7.19,-13.22 -16.89,-23.35 -29.1,-30.38 -12.21,-7.04 -25.65,-10.56 -40.3,-10.56 -14.65,0 -28.02,3.44 -40.08,10.34 -12.06,6.89 -21.7,16.95 -28.87,30.17 -7.19,13.22 -10.78,28.73 -10.78,46.55 0,18.1 3.59,33.83 10.78,47.2 7.18,13.36 16.81,23.56 28.87,30.59 12.06,7.05 25.43,10.56 40.08,10.56 14.65,0 28.09,-3.51 40.3,-10.56 12.21,-7.04 21.91,-17.24 29.1,-30.59 7.18,-13.37 10.77,-28.96 10.77,-46.77zm271.71 -181.88l0 300.41 -39.22 0 0 -300.41 39.22 0zm362.22 59.91c18.39,0 34.77,3.81 49.13,11.42 14.37,7.62 25.72,19.04 34.05,34.26 8.34,15.23 12.5,33.77 12.5,55.6l0 139.22 -38.79 0 0 -133.61c0,-23.56 -5.81,-41.59 -17.45,-54.09 -11.64,-12.5 -27.38,-18.75 -47.2,-18.75 -20.4,0 -36.63,6.55 -48.71,19.62 -12.06,13.07 -18.1,31.96 -18.1,56.67l0 130.17 -38.78 0 0 -133.61c0,-23.56 -5.82,-41.59 -17.46,-54.09 -11.64,-12.5 -27.37,-18.75 -47.19,-18.75 -20.4,0 -36.64,6.55 -48.71,19.62 -12.06,13.07 -18.1,31.96 -18.1,56.67l0 130.17 -39.22 0 0 -236.18 39.22 0 0 34.05c7.76,-12.36 18.17,-21.84 31.25,-28.45 13.07,-6.61 27.51,-9.92 43.32,-9.92 19.82,0 37.34,4.46 52.58,13.37 15.23,8.9 26.58,21.97 34.05,39.22 6.62,-16.67 17.53,-29.6 32.76,-38.79 15.23,-9.19 32.18,-13.8 50.86,-13.8zm156.63 121.54c0,-24.14 4.89,-45.33 14.66,-63.57 9.76,-18.24 23.2,-32.4 40.3,-42.46 17.09,-10.06 36.13,-15.08 57.11,-15.08 20.69,0 38.65,4.45 53.88,13.36 15.22,8.91 26.57,20.11 34.05,33.62l0 -43.1 39.65 0 0 236.18 -39.65 0 0 -43.96c-7.76,13.8 -19.32,25.22 -34.7,34.27 -15.37,9.05 -33.26,13.57 -53.65,13.57 -20.98,0 -39.94,-5.17 -56.89,-15.52 -16.95,-10.34 -30.32,-24.85 -40.08,-43.53 -9.77,-18.67 -14.66,-39.93 -14.66,-63.79zm199.99 0.43c0,-17.81 -3.59,-33.32 -10.77,-46.55 -7.19,-13.22 -16.89,-23.35 -29.1,-30.38 -12.21,-7.04 -25.65,-10.56 -40.3,-10.56 -14.65,0 -28.02,3.44 -40.08,10.34 -12.06,6.89 -21.7,16.95 -28.87,30.17 -7.19,13.22 -10.78,28.73 -10.78,46.55 0,18.1 3.59,33.83 10.78,47.2 7.18,13.36 16.81,23.56 28.87,30.59 12.06,7.05 25.43,10.56 40.08,10.56 14.65,0 28.09,-3.51 40.3,-10.56 12.21,-7.04 21.91,-17.24 29.1,-30.59 7.18,-13.37 10.77,-28.96 10.77,-46.77zm214.81 -121.53c20.4,0 38.28,4.45 53.65,13.36 15.37,8.91 26.8,20.11 34.27,33.62l0 -43.1 39.65 0 0 241.36c0,21.55 -4.59,40.72 -13.79,57.53 -9.19,16.81 -22.34,29.96 -39.44,39.44 -17.09,9.48 -36.99,14.22 -59.69,14.22 -31.03,0 -56.89,-7.33 -77.58,-21.98 -20.69,-14.65 -32.9,-34.63 -36.63,-59.91l38.79 0c4.31,14.37 13.22,25.93 26.73,34.69 13.5,8.77 29.74,13.15 48.7,13.15 21.55,0 39.15,-6.76 52.8,-20.26 13.65,-13.5 20.47,-32.47 20.47,-56.89l0 -49.56c-7.76,13.79 -19.25,25.28 -34.48,34.47 -15.23,9.19 -33.04,13.8 -53.44,13.8 -20.97,0 -40.01,-5.17 -57.11,-15.52 -17.09,-10.34 -30.53,-24.85 -40.3,-43.53 -9.77,-18.67 -14.66,-39.93 -14.66,-63.79 0,-24.14 4.89,-45.33 14.66,-63.57 9.76,-18.24 23.2,-32.4 40.3,-42.46 17.09,-10.06 36.13,-15.08 57.11,-15.08zm87.92 121.53c0,-17.81 -3.59,-33.32 -10.77,-46.55 -7.19,-13.22 -16.89,-23.35 -29.1,-30.38 -12.21,-7.04 -25.65,-10.56 -40.3,-10.56 -14.65,0 -28.02,3.44 -40.08,10.34 -12.06,6.89 -21.7,16.95 -28.87,30.17 -7.19,13.22 -10.78,28.73 -10.78,46.55 0,18.1 3.59,33.83 10.78,47.2 7.18,13.36 16.81,23.56 28.87,30.59 12.06,7.05 25.43,10.56 40.08,10.56 14.65,0 28.09,-3.51 40.3,-10.56 12.21,-7.04 21.91,-17.24 29.1,-30.59 7.18,-13.37 10.77,-28.96 10.77,-46.77zm137.66 -156.02c-7.46,0 -13.79,-2.59 -18.96,-7.76 -5.17,-5.17 -7.76,-11.49 -7.76,-18.97 0,-7.47 2.59,-13.79 7.76,-18.96 5.17,-5.17 11.49,-7.76 18.96,-7.76 7.19,0 13.3,2.59 18.32,7.76 5.03,5.17 7.54,11.48 7.54,18.96 0,7.47 -2.51,13.8 -7.54,18.97 -5.02,5.17 -11.13,7.76 -18.32,7.76zm18.97 38.36l0 236.18 -39.22 0 0 -236.18 39.22 0zm193.27 -4.32c28.73,0 52.01,8.69 69.81,26.07 17.82,17.39 26.73,42.46 26.73,75.21l0 139.22 -38.79 0 0 -133.61c0,-23.56 -5.88,-41.59 -17.66,-54.09 -11.79,-12.5 -27.88,-18.75 -48.28,-18.75 -20.69,0 -37.13,6.47 -49.35,19.4 -12.21,12.93 -18.32,31.76 -18.32,56.47l0 130.59 -39.22 0 0 -236.18 39.22 0 0 33.61c7.76,-12.06 18.32,-21.4 31.67,-28.01 13.37,-6.61 28.09,-9.92 44.19,-9.92zm157.48 121.54c0,-24.14 4.89,-45.33 14.66,-63.57 9.76,-18.24 23.2,-32.4 40.3,-42.46 17.09,-10.06 36.13,-15.08 57.11,-15.08 20.69,0 38.65,4.45 53.88,13.36 15.22,8.91 26.57,20.11 34.05,33.62l0 -43.1 39.65 0 0 236.18 -39.65 0 0 -43.96c-7.76,13.8 -19.32,25.22 -34.7,34.27 -15.37,9.05 -33.26,13.57 -53.65,13.57 -20.98,0 -39.94,-5.17 -56.89,-15.52 -16.95,-10.34 -30.32,-24.85 -40.08,-43.53 -9.77,-18.67 -14.66,-39.93 -14.66,-63.79zm199.99 0.43c0,-17.81 -3.59,-33.32 -10.77,-46.55 -7.19,-13.22 -16.89,-23.35 -29.1,-30.38 -12.21,-7.04 -25.65,-10.56 -40.3,-10.56 -14.65,0 -28.02,3.44 -40.08,10.34 -12.06,6.89 -21.7,16.95 -28.87,30.17 -7.19,13.22 -10.78,28.73 -10.78,46.55 0,18.1 3.59,33.83 10.78,47.2 7.18,13.36 16.81,23.56 28.87,30.59 12.06,7.05 25.43,10.56 40.08,10.56 14.65,0 28.09,-3.51 40.3,-10.56 12.21,-7.04 21.91,-17.24 29.1,-30.59 7.18,-13.37 10.77,-28.96 10.77,-46.77zm165.25 -85.34l0 139.22c0,11.49 2.43,19.61 7.32,24.35 4.89,4.74 13.37,7.11 25.43,7.11l28.87 0 0 33.19 -35.34 0c-21.84,0 -38.22,-5.03 -49.13,-15.09 -10.91,-10.05 -16.38,-26.57 -16.38,-49.56l0 -139.22 -30.59 0 0 -32.32 30.59 0 0 -59.48 39.23 0 0 59.48 61.63 0 0 32.32 -61.63 0zm140.67 -70.68c-7.46,0 -13.79,-2.59 -18.96,-7.76 -5.17,-5.17 -7.76,-11.49 -7.76,-18.97 0,-7.47 2.59,-13.79 7.76,-18.96 5.17,-5.17 11.49,-7.76 18.96,-7.76 7.19,0 13.3,2.59 18.32,7.76 5.03,5.17 7.54,11.48 7.54,18.96 0,7.47 -2.51,13.8 -7.54,18.97 -5.02,5.17 -11.13,7.76 -18.32,7.76zm18.97 38.36l0 236.18 -39.22 0 0 -236.18 39.22 0zm181.2 240.06c-22.12,0 -42.16,-5.03 -60.12,-15.09 -17.96,-10.05 -32.04,-24.34 -42.24,-42.88 -10.2,-18.53 -15.3,-40.01 -15.3,-64.44 0,-24.13 5.24,-45.47 15.73,-64 10.5,-18.53 24.79,-32.75 42.89,-42.67 18.1,-9.92 38.35,-14.86 60.77,-14.86 22.41,0 42.67,4.95 60.77,14.86 18.09,9.92 32.4,24.07 42.88,42.46 10.49,18.39 15.73,39.8 15.73,64.21 0,24.42 -5.39,45.91 -16.17,64.44 -10.77,18.54 -25.35,32.83 -43.74,42.88 -18.4,10.06 -38.79,15.09 -61.21,15.09zm0 -34.48c14.08,0 27.3,-3.3 39.66,-9.91 12.35,-6.61 22.34,-16.52 29.95,-29.74 7.62,-13.22 11.42,-29.31 11.42,-48.28 0,-18.96 -3.74,-35.05 -11.21,-48.27 -7.47,-13.22 -17.24,-23.06 -29.3,-29.53 -12.07,-6.47 -25.15,-9.69 -39.23,-9.69 -14.37,0 -27.51,3.23 -39.43,9.69 -11.92,6.47 -21.48,16.31 -28.66,29.53 -7.19,13.22 -10.78,29.31 -10.78,48.27 0,19.25 3.52,35.49 10.56,48.71 7.05,13.22 16.45,23.06 28.23,29.53 11.78,6.47 24.71,9.69 38.79,9.69zm299.3 -209.9c28.73,0 52.01,8.69 69.81,26.07 17.82,17.39 26.73,42.46 26.73,75.21l0 139.22 -38.79 0 0 -133.61c0,-23.56 -5.88,-41.59 -17.66,-54.09 -11.79,-12.5 -27.88,-18.75 -48.28,-18.75 -20.69,0 -37.13,6.47 -49.35,19.4 -12.21,12.93 -18.32,31.76 -18.32,56.47l0 130.59 -39.22 0 0 -236.18 39.22 0 0 33.61c7.76,-12.06 18.32,-21.4 31.67,-28.01 13.37,-6.61 28.09,-9.92 44.19,-9.92z"/>
  </g>
 </g>
</svg>
